<svg xmlns="http://www.w3.org/2000/svg" viewBox="0 0 888.37 510.49"><title>Asset 12</title><g id="Layer_2" data-name="Layer 2"><g id="Layer_1-2" data-name="Layer 1"><path d="M730.8,252.76H863.05a25.32,25.32,0,1,0,0-50.63h-96a25.31,25.31,0,0,1-25.31-25.31h0a25.31,25.31,0,0,1,25.31-25.31h18.32a25.32,25.32,0,0,0,25.31-25.32h0a25.31,25.31,0,0,0-25.31-25.31H399.63a25.32,25.32,0,0,0-25.32,25.31h0a25.33,25.33,0,0,0,12.55,21.86H51.49a21.95,21.95,0,1,0,0,43.89H168.58a21.94,21.94,0,0,1,21.94,21.94h0a21.94,21.94,0,0,1-21.94,21.94H114.74a21.95,21.95,0,1,0,0,43.89h22.41a21.95,21.95,0,0,1,0,43.89H21.94A22,22,0,0,0,0,345.55H0a21.94,21.94,0,0,0,21.94,21.94H145.38a21.95,21.95,0,0,1,0,43.89H101.63a21.95,21.95,0,1,0,0,43.89H436a21.89,21.89,0,0,0,10.32-2.57,25.28,25.28,0,0,0,11.12,2.57H843.2a25.32,25.32,0,0,0,0-50.63H740.29a25.31,25.31,0,1,1,0-50.62h27a25.32,25.32,0,0,0,25.31-25.32h0a25.31,25.31,0,0,0-25.31-25.31H730.8a25.32,25.32,0,1,1,0-50.63Zm-414.16,48.9a21.94,21.94,0,0,1,21.94-22H453.24a21.94,21.94,0,0,0,21.36-26.95h23.84a25.32,25.32,0,0,1,0,50.63H365.55a25.32,25.32,0,0,0-24.8,20.21h-2.17A21.94,21.94,0,0,1,316.64,301.66Zm191.29,103H457.46a25.23,25.23,0,0,0-17.55,7.09,22.6,22.6,0,0,0-3.89-.35H346.81a21.95,21.95,0,0,1,0-43.89h23.36A22,22,0,0,0,390.42,354H507.93a25.31,25.31,0,0,1,0,50.62Z" fill="#06121f"/><path d="M467.53,475.9a144.69,144.69,0,0,1,53,10,126.13,126.13,0,0,1,15.16-31.62H398.81a146.65,146.65,0,0,1,15.08,31.87A144.61,144.61,0,0,1,467.53,475.9Z" fill="none"/><rect x="221.55" y="288.8" width="181.4" height="60.24" rx="30.12" ry="30.12" transform="translate(-125.13 407.88) rotate(-57.1)" fill="#008494"/><rect x="245.54" y="361.44" width="181.4" height="60.24" rx="30.12" ry="30.12" transform="translate(165.2 -95.39) rotate(21.3)" fill="#00a5a8"/><rect x="489.53" y="288.8" width="181.4" height="60.24" rx="30.12" ry="30.12" transform="translate(627.6 979.32) rotate(-122.9)" fill="#008494"/><rect x="466.63" y="361.44" width="181.4" height="60.24" rx="30.12" ry="30.12" transform="translate(1218.81 553.93) rotate(158.7)" fill="#00a5a8"/><rect x="363.7" y="255.33" width="166.86" height="151.41" fill="#008494"/><rect x="52.96" y="454.07" width="780" height="56.43" rx="28.21" ry="28.21" fill="#4facfe"/><path d="M241.15,412.54a14.36,14.36,0,1,0,14.36,14.35A14.35,14.35,0,0,0,241.15,412.54Zm0,21.46a7.11,7.11,0,1,1,7.1-7.11A7.1,7.1,0,0,1,241.15,434Z" fill="#c8244f"/><rect x="196.68" y="399.51" width="44.47" height="54.77" fill="#e72d5c"/><rect x="196.68" y="421.74" width="44.47" height="11.5" fill="#fff"/><rect x="196.68" y="437.04" width="44.47" height="5.08" fill="#fff"/><rect x="196.68" y="412.87" width="44.47" height="5.08" fill="#fff"/><rect x="718.05" y="448.25" width="29.64" height="6.07" fill="#c8244f"/><circle cx="732.87" cy="424.42" r="28.06" fill="#c8244f"/><circle cx="732.87" cy="424.42" r="22.37" fill="#fff"/><path d="M732.87,449.61a25.19,25.19,0,1,1,25.19-25.19A25.22,25.22,0,0,1,732.87,449.61Zm0-46.78a21.59,21.59,0,1,0,21.59,21.59A21.62,21.62,0,0,0,732.87,402.83Z" fill="#001d33"/><rect x="731.43" y="405.77" width="2.8" height="7.66" rx="0.91" ry="0.91" fill="#1a3165"/><rect x="741.92" y="410.08" width="2.8" height="7.66" rx="0.91" ry="0.91" transform="translate(510.4 -404.37) rotate(45)" fill="#1a3165"/><rect x="746.29" y="420.55" width="2.8" height="7.66" rx="0.91" ry="0.91" transform="translate(1172.07 -323.31) rotate(90)" fill="#1a3165"/><rect x="741.98" y="431.04" width="2.8" height="7.66" rx="0.91" ry="0.91" transform="translate(1576.53 216.73) rotate(135)" fill="#1a3165"/><rect x="731.51" y="435.41" width="2.8" height="7.66" rx="0.91" ry="0.91" transform="translate(1465.82 878.48) rotate(180)" fill="#1a3165"/><rect x="721.02" y="431.1" width="2.8" height="7.66" rx="0.91" ry="0.91" transform="translate(925.7 1253.3) rotate(-135)" fill="#1a3165"/><rect x="716.65" y="420.63" width="2.8" height="7.66" rx="0.91" ry="0.91" transform="translate(293.59 1142.51) rotate(-90)" fill="#1a3165"/><rect x="720.96" y="410.14" width="2.8" height="7.66" rx="0.91" ry="0.91" transform="translate(-81.15 632.04) rotate(-45)" fill="#1a3165"/><circle cx="732.83" cy="424.46" r="1.89" fill="#1a3165"/><rect x="735.52" y="423.61" width="1.9" height="16.76" rx="0.62" ry="0.62" transform="translate(1587.04 506.28) rotate(154.6)" fill="#1a3165"/><rect x="736.81" y="419.45" width="1.9" height="9.79" rx="0.62" ry="0.62" transform="translate(319.96 1165.82) rotate(-90.51)" fill="#1a3165"/><path d="M664.48,374.24h0a4.83,4.83,0,0,1,4.83,4.83v73.29a0,0,0,0,1,0,0h-9.67a0,0,0,0,1,0,0V379.07A4.83,4.83,0,0,1,664.48,374.24Z" transform="translate(1328.97 826.6) rotate(180)" fill="#ea5536"/><path d="M659.65,445.36h9.67v2.17a4.84,4.84,0,0,1-4.84,4.83h0a4.83,4.83,0,0,1-4.83-4.83Z" fill="#e72d5c"/><rect x="659.65" y="443.74" width="9.67" height="1.63" transform="translate(1328.97 889.1) rotate(180)" fill="#fff"/><rect x="659.65" y="374.24" width="3.1" height="68.8" transform="translate(1322.4 817.27) rotate(180)" fill="#ea5536"/><rect x="662.75" y="374.24" width="3.46" height="68.8" fill="#ed977c"/><polygon points="664.48 360.87 659.65 374.24 669.32 374.24 664.48 360.87" fill="#f7c89f"/><polygon points="664.48 360.87 662.33 366.83 666.64 366.83 664.48 360.87" fill="#112f3b"/><rect x="630.58" y="361.95" width="9.67" height="84.13" rx="4.83" ry="4.83" transform="translate(94.61 -119.93) rotate(11.64)" fill="#cbd000"/><path d="M647.23,370.65l-9.47-1.95.44-2.12a4.83,4.83,0,0,1,5.71-3.76h0a4.84,4.84,0,0,1,3.76,5.71Z" fill="#e72d5c"/><rect x="637.5" y="369.66" width="9.67" height="1.63" transform="translate(87.99 -122.01) rotate(11.64)" fill="#fff"/><rect x="641.05" y="371.65" width="3.1" height="27.58" transform="translate(91.01 -121.76) rotate(11.64)" fill="#cbd000"/><rect x="625.6" y="383.04" width="27.58" height="3.46" transform="translate(133.49 933.34) rotate(-78.36)" fill="#dae000"/><rect x="647.77" y="360.29" width="9.67" height="84.13" rx="4.83" ry="4.83" fill="#008cba"/><path d="M657.43,367.29h-9.66v-2.17a4.83,4.83,0,0,1,4.83-4.83h0a4.83,4.83,0,0,1,4.83,4.83Z" fill="#e72d5c"/><rect x="647.77" y="367.29" width="9.67" height="1.63" fill="#fff"/><rect x="654.33" y="368.91" width="3.1" height="27.58" fill="#008cba"/><rect x="650.87" y="368.91" width="3.46" height="27.58" fill="#03b8df"/><rect x="621.87" y="396.41" width="57.87" height="57.87" fill="#c8244f"/><rect x="621.87" y="396.49" width="57.87" height="8.2" fill="#e72d5c"/><circle cx="669.32" cy="165.74" r="49.89" fill="#eded7b" opacity="0.22"/><circle cx="669.32" cy="165.74" r="41.31" fill="#eded7b" opacity="0.22"/><circle cx="669.32" cy="165.74" r="30.43" fill="#f0ba2a"/><circle cx="659.14" cy="157.62" r="7.73" fill="#d8a92e"/><circle cx="663.39" cy="175.8" r="4.83" fill="#d8a92e"/><circle cx="679.23" cy="178.87" r="4.12" fill="#d8a92e"/><circle cx="679.94" cy="162.3" r="5.91" fill="#d8a92e"/><circle cx="377.62" cy="150.34" r="24.48" fill="#f7c89f"/><circle cx="377.62" cy="150.34" r="13.67" fill="#ea5536"/><circle cx="545.4" cy="193.4" r="24.48" fill="#f7c89f"/><circle cx="545.4" cy="193.4" r="13.67" fill="#ea5536"/><circle cx="531.51" cy="175.13" r="25.23" fill="#001d33"/><circle cx="399.11" cy="141.15" r="25.23" fill="#001d33"/><rect x="371.72" y="60.64" width="173.77" height="244.3" rx="77.2" ry="77.2" transform="translate(59.83 -108.25) rotate(14.39)" fill="#f7c89f"/><rect x="448.02" y="268.81" width="9.54" height="23.31" rx="4.24" ry="4.24" transform="translate(0.92 -1.47) rotate(0.19)" fill="#03b8df"/><path d="M453.54,291.17a4.69,4.69,0,0,1-4.67-4.7.56.56,0,0,1,.56-.56.55.55,0,0,1,.56.56,3.58,3.58,0,0,0,3.56,3.58.56.56,0,0,1,.56.56A.57.57,0,0,1,453.54,291.17Z" fill="#fff"/><circle cx="395.12" cy="112.92" r="21.44" fill="#273043"/><circle cx="541.42" cy="151.63" r="21.44" fill="#273043"/><circle cx="424.82" cy="88.44" r="44.11" fill="#273043"/><circle cx="514" cy="78.62" r="78.6" fill="#273043"/><path d="M570.11,94.85A5.63,5.63,0,0,1,566.06,88a47.34,47.34,0,0,0-34-57.55,5.63,5.63,0,1,1,2.79-10.9A58.59,58.59,0,0,1,577,90.8,5.63,5.63,0,0,1,570.11,94.85Z" fill="#4b5260"/><path d="M412.45,205.58a34.46,34.46,0,1,1,41.93-24.81A34.5,34.5,0,0,1,412.45,205.58Zm15.45-60.21a27.7,27.7,0,1,0,19.94,33.72A27.75,27.75,0,0,0,427.9,145.37Z" fill="#273043"/><path d="M487.74,224.9a34.46,34.46,0,1,1,41.93-24.81A34.5,34.5,0,0,1,487.74,224.9Zm15.45-60.21a27.7,27.7,0,1,0,19.94,33.72A27.75,27.75,0,0,0,503.19,164.69Z" fill="#273043"/><rect x="451.19" y="177.08" width="16.05" height="7.14" transform="translate(59.31 -108.47) rotate(14.39)" fill="#273043"/><circle cx="438.35" cy="225.11" r="4.43" fill="#ed977c"/><circle cx="455.63" cy="229.55" r="4.43" fill="#ed977c"/><rect x="405.36" y="173.84" width="27.98" height="9.63" rx="4.28" ry="4.28" transform="translate(57.57 -98.63) rotate(14.39)" fill="#001d33"/><rect x="480.66" y="193.16" width="27.98" height="9.63" rx="4.28" ry="4.28" transform="translate(64.73 -116.74) rotate(14.39)" fill="#001d33"/><path d="M443,243a20.76,20.76,0,0,0-19.77,5.36l34.52,8.86A20.77,20.77,0,0,0,443,243Z" fill="#fff"/><path d="M435.77,271.05a16.36,16.36,0,0,1,11.43,10.58,20.71,20.71,0,0,0,10.53-24.46l-34.52-8.86a20.72,20.72,0,0,0-2.55,26.51A16.36,16.36,0,0,1,435.77,271.05Z" fill="#001d33"/><path d="M447.2,281.63a16.37,16.37,0,0,0-26.54-6.81,20.71,20.71,0,0,0,26.54,6.81Z" fill="#e72d5c"/><rect x="324.27" y="292.98" width="244.58" height="154.96" rx="11.41" ry="11.41" fill="#273043"/><rect x="324.27" y="446.35" width="244.58" height="8.43" rx="3.37" ry="3.37" fill="#424f66"/><path d="M458.62,358.41a12.41,12.41,0,0,0-7.81.68l1.43-4.6,7.11,1a3.59,3.59,0,0,0,1-7.12l-20-2.76a3.59,3.59,0,1,0-1,7.12l6.34.88-1.81,5.81a11,11,0,1,0-10.56,18.16h.06a10.22,10.22,0,1,0,18.73,5c.24.07.49.15.74.21a12.52,12.52,0,1,0,5.79-24.37Z" fill="#fff"/><rect x="471.55" y="414.08" width="83.65" height="18.05" rx="4.5" ry="4.5" fill="#e72d5c"/><path d="M476.15,429.37a.56.56,0,0,1-.57-.57v-2.6h-.69a.57.57,0,0,1-.57-.57v-.92a.58.58,0,0,1,.57-.57h3.66a.57.57,0,0,1,.57.57v.92a.56.56,0,0,1-.57.57h-.68v2.6a.56.56,0,0,1-.57.57Z" fill="#e72d5c"/><path d="M481.72,429.37a.56.56,0,0,1-.57-.57v-1h-.44v1a.57.57,0,0,1-.57.57H479a.57.57,0,0,1-.57-.57v-4.09a.58.58,0,0,1,.57-.57h1.16a.58.58,0,0,1,.57.57v1h.44v-1a.57.57,0,0,1,.57-.57h1.15a.57.57,0,0,1,.57.57v4.09a.56.56,0,0,1-.57.57Z" fill="#e72d5c"/><path d="M483.69,429.37a.56.56,0,0,1-.57-.57v-4.09a.57.57,0,0,1,.57-.57h3.2a.57.57,0,0,1,.57.57v.9a.56.56,0,0,1-.28.49.45.45,0,0,1,0,.2v.86a.78.78,0,0,1,0,.22.57.57,0,0,1,.36.53v.89a.57.57,0,0,1-.57.57Z" fill="#e72d5c"/><path d="M491.93,428.69a.54.54,0,0,0-.08-.21l-.49-.71-.08-.11.08-.09a1.71,1.71,0,0,0,.21-.26,2,2,0,0,0,.29-1.08,2,2,0,0,0-.31-1.12l-.19-.24a2,2,0,0,0-.68-.49,2.86,2.86,0,0,0-1.2-.24h-1.87a.59.59,0,0,0-.36.13.58.58,0,0,0-.21.44v4.09a.56.56,0,0,0,.21.44l0,0h0a.57.57,0,0,0,.32.09h1.16a.5.5,0,0,0,.27-.07.55.55,0,0,0,.3-.5v-.16l.33.48a.56.56,0,0,0,.47.25h1.24a.52.52,0,0,0,.27-.07.51.51,0,0,0,.23-.23.66.66,0,0,0,.06-.27A.41.41,0,0,0,491.93,428.69Zm-2.59-2.5h.07c.13,0,.17,0,.17,0a.44.44,0,0,1-.17,0h-.07Z" fill="#e72d5c"/><path d="M491.36,427.57v.2l-.08-.11Z" fill="#e72d5c"/><path d="M495.78,427.91v.89a.56.56,0,0,1-.57.57h-3.28a.64.64,0,0,1-.28-.07.59.59,0,0,1-.29-.5v-4.09a.58.58,0,0,1,.57-.57h3.2a.57.57,0,0,1,.57.57v.9a.56.56,0,0,1-.28.49.45.45,0,0,1,0,.2v.86a.54.54,0,0,1,0,.22A.56.56,0,0,1,495.78,427.91Z" fill="#e72d5c"/><rect x="496.98" y="424.14" width="2.3" height="5.23" rx="0.57" ry="0.57" fill="#e72d5c"/><path d="M501,429.45a4.56,4.56,0,0,1-1.11-.14,3,3,0,0,1-.94-.41.57.57,0,0,1-.2-.7l.38-.85a.75.75,0,0,1,.15-.2.93.93,0,0,1-.14-.14,1.55,1.55,0,0,1-.37-1.05,1.77,1.77,0,0,1,.31-1,1.8,1.8,0,0,1,.85-.67,3,3,0,0,1,1.22-.23,4.08,4.08,0,0,1,.93.11,2.89,2.89,0,0,1,.85.33.57.57,0,0,1,.23.71l-.35.86a.91.91,0,0,1-.11.16,1.58,1.58,0,0,1,.3.28,1.49,1.49,0,0,1,.38,1.05,1.73,1.73,0,0,1-.31,1,1.94,1.94,0,0,1-.85.68A3.09,3.09,0,0,1,501,429.45Z" fill="#e72d5c"/><path d="M507.94,429.37a.58.58,0,0,1-.44-.21l-.79-1v.6a.57.57,0,0,1-.57.57H505a.56.56,0,0,1-.57-.57v-4.09a.57.57,0,0,1,.57-.57H506a.58.58,0,0,1,.44.21l.79,1v-.6a.58.58,0,0,1,.57-.57h1.13a.57.57,0,0,1,.57.57v4.09a.56.56,0,0,1-.57.57Z" fill="#e72d5c"/><path d="M514.24,425.37a2.6,2.6,0,0,0-1-1,3.1,3.1,0,0,0-2.86,0,2.53,2.53,0,0,0-.88.74,1.07,1.07,0,0,0-.15.22,2.64,2.64,0,0,0-.38,1.39,2.6,2.6,0,0,0,.38,1.38,1.07,1.07,0,0,0,.15.22,2.67,2.67,0,0,0,.88.75,3.18,3.18,0,0,0,2.86,0,2.7,2.7,0,0,0,1-1,2.59,2.59,0,0,0,.37-1.38A2.63,2.63,0,0,0,514.24,425.37Zm-2.93,1.05a.5.5,0,0,1,.19-.19.47.47,0,0,1,.27-.07.45.45,0,0,1,.27.07.5.5,0,0,1,.19.19.71.71,0,0,1,.07.34.67.67,0,0,1-.07.33.52.52,0,0,1-.19.2.54.54,0,0,1-.27.07.57.57,0,0,1-.27-.07.52.52,0,0,1-.19-.2.67.67,0,0,1-.07-.33A.71.71,0,0,1,511.31,426.42Z" fill="#e72d5c"/><path d="M520.59,426.13a1.94,1.94,0,0,0-.3-1,1.63,1.63,0,0,0-.27-.31,1.75,1.75,0,0,0-.61-.42,2.82,2.82,0,0,0-1.2-.24h-1.86a.57.57,0,0,0-.57.57v4.09a.54.54,0,0,0,.22.45.53.53,0,0,0,.35.12h1.15a.5.5,0,0,0,.27-.07.55.55,0,0,0,.3-.5v-.5h.14a3,3,0,0,0,1.2-.23,2.07,2.07,0,0,0,.61-.42,2,2,0,0,0,.27-.31,1.9,1.9,0,0,0,.3-1,.34.34,0,0,0,0-.1A.31.31,0,0,0,520.59,426.13Zm-2.52.06h.07c.13,0,.17,0,.18,0a.55.55,0,0,1-.18,0h-.07Z" fill="#e72d5c"/><path d="M520.59,429.37a.57.57,0,0,1-.57-.57v-4.09a.58.58,0,0,1,.57-.57h1.16a.58.58,0,0,1,.57.57v2.6h1.38a.58.58,0,0,1,.57.57v.92a.57.57,0,0,1-.57.57Z" fill="#e72d5c"/><path d="M527.26,429.37a.56.56,0,0,1-.53-.36l-.18-.43h-1l-.17.43a.57.57,0,0,1-.53.36h-1.18a.59.59,0,0,1-.48-.26.57.57,0,0,1,0-.54l1.8-4.09a.58.58,0,0,1,.52-.34h1.14a.57.57,0,0,1,.52.34l1.81,4.09a.57.57,0,0,1,0,.54.59.59,0,0,1-.48.26Z" fill="#e72d5c"/><path d="M533,427.87a.6.6,0,0,1,0,.49l-.07.11a2.39,2.39,0,0,1-.49.46,2.43,2.43,0,0,1-.47.28,3.17,3.17,0,0,1-1.25.24,3,3,0,0,1-1.42-.34,2.14,2.14,0,0,1-.32-.2,2.42,2.42,0,0,1-.7-.76,2.63,2.63,0,0,1-.37-1.39,3.15,3.15,0,0,1,0-.44,2.61,2.61,0,0,1,1.36-1.92,3.07,3.07,0,0,1,1.42-.34,3.17,3.17,0,0,1,1.25.25,2.43,2.43,0,0,1,.47.28,2.14,2.14,0,0,1,.49.46.41.41,0,0,1,.07.11.6.6,0,0,1,0,.49.55.55,0,0,1-.13.17l-.44.4-.3.27a.55.55,0,0,1-.38.15h0a.57.57,0,0,1-.4-.21.65.65,0,0,0-.52-.27.63.63,0,0,0-.32.07.55.55,0,0,0-.18.19.69.69,0,0,0-.07.34.67.67,0,0,0,.07.33.42.42,0,0,0,.18.19.63.63,0,0,0,.32.08.66.66,0,0,0,.52-.28.55.55,0,0,1,.39-.2h0a.55.55,0,0,1,.38.15l.3.26.44.4A.59.59,0,0,1,533,427.87Z" fill="#e72d5c"/><path d="M532.47,426.22v1.07l-.3-.26a.55.55,0,0,0-.38-.15h0a.55.55,0,0,0-.39.2.66.66,0,0,1-.52.28.63.63,0,0,1-.32-.08.42.42,0,0,1-.18-.19.67.67,0,0,1-.07-.33.69.69,0,0,1,.07-.34.55.55,0,0,1,.18-.19.63.63,0,0,1,.32-.07.65.65,0,0,1,.52.27.57.57,0,0,0,.4.21h0a.55.55,0,0,0,.38-.15Z" fill="#e72d5c"/><path d="M536.89,427.91v.89a.57.57,0,0,1-.57.57H533a.57.57,0,0,1-.56-.44.53.53,0,0,1,0-.13v-4.09a.49.49,0,0,1,0-.12.58.58,0,0,1,.56-.45h3.2a.57.57,0,0,1,.57.57v.9a.56.56,0,0,1-.28.49.64.64,0,0,1,0,.2v.86a.54.54,0,0,1,0,.22A.57.57,0,0,1,536.89,427.91Z" fill="#e72d5c"/><path d="M538.66,429.37a.56.56,0,0,1-.57-.57v-4.09a.57.57,0,0,1,.57-.57h1.15a.57.57,0,0,1,.57.57v2.6h1.38a.57.57,0,0,1,.57.57v.92a.56.56,0,0,1-.57.57Z" fill="#e72d5c"/><rect x="541.65" y="424.14" width="2.3" height="5.23" rx="0.57" ry="0.57" fill="#e72d5c"/><path d="M546.94,429.37a.56.56,0,0,1-.45-.22l-.58-.74v.39a.57.57,0,0,1-.57.57H544.2a.56.56,0,0,1-.57-.57v-4.09a.57.57,0,0,1,.57-.57h1.14a.58.58,0,0,1,.57.57V425l.6-.64a.53.53,0,0,1,.41-.19h1.27a.58.58,0,0,1,.53.35.56.56,0,0,1-.11.61l-1.34,1.46,1.46,1.89a.57.57,0,0,1-.45.92Z" fill="#e72d5c"/><path d="M548.59,429.37a.56.56,0,0,1-.57-.57v-4.09a.57.57,0,0,1,.57-.57h3.2a.58.58,0,0,1,.57.57v.9a.56.56,0,0,1-.28.49.64.64,0,0,1,0,.2v.86a.54.54,0,0,1,0,.22.58.58,0,0,1,.37.53v.89a.57.57,0,0,1-.57.57Z" fill="#e72d5c"/><path d="M476.15,425.63h-1.26v-.92h3.66v.92H477.3v3.17h-1.15Z" fill="#fff"/><path d="M482.87,424.71v4.09h-1.15v-1.59h-1.58v1.59H479v-4.09h1.16v1.54h1.58v-1.54Z" fill="#fff"/><path d="M487,427.91v.89h-3.28v-4.09h3.2v.9h-2.06v.69h1.82v.86h-1.82v.75Z" fill="#fff"/><path d="M491.36,428.78l-.87-1.26a1.46,1.46,0,0,0,.6-.52,1.5,1.5,0,0,0,.2-.77,1.45,1.45,0,0,0-.22-.81,1.42,1.42,0,0,0-.63-.52,2.35,2.35,0,0,0-1-.19h-1.87v4.09h1.16v-1.08h.63l.74,1.08h1.24ZM490,426.67a.85.85,0,0,1-.54.15h-.64v-1.2h.64a.85.85,0,0,1,.54.16.56.56,0,0,1,.17.45A.55.55,0,0,1,490,426.67Z" fill="#fff"/><path d="M489.58,426.23a.44.44,0,0,1-.17,0h-.07v-.06h.07C489.54,426.19,489.58,426.22,489.58,426.23Z" fill="#e72d5c"/><path d="M495.21,427.91v.89h-3.28v-4.09h3.21v.9h-2.07v.69h1.82v.86h-1.82v.75Z" fill="#fff"/><path d="M497.55,424.71h1.16v4.09h-1.16Z" fill="#fff"/><path d="M500,428.76a2.32,2.32,0,0,1-.76-.33l.38-.85a2.5,2.5,0,0,0,.64.29,2.23,2.23,0,0,0,.71.11c.45,0,.67-.11.67-.33a.29.29,0,0,0-.19-.26,4,4,0,0,0-.61-.18,4.37,4.37,0,0,1-.77-.21,1.32,1.32,0,0,1-.53-.36,1,1,0,0,1-.23-.68,1.16,1.16,0,0,1,.21-.68,1.29,1.29,0,0,1,.61-.47,2.43,2.43,0,0,1,1-.18,3.57,3.57,0,0,1,.8.09,2.37,2.37,0,0,1,.69.27l-.36.86a2.4,2.4,0,0,0-1.13-.32,1,1,0,0,0-.5.1.31.31,0,0,0-.16.27.25.25,0,0,0,.19.24,2.37,2.37,0,0,0,.6.17,5.32,5.32,0,0,1,.77.22,1.26,1.26,0,0,1,.53.36,1,1,0,0,1,.23.67,1.13,1.13,0,0,1-.21.67,1.29,1.29,0,0,1-.61.47,2.43,2.43,0,0,1-1,.18A3.91,3.91,0,0,1,500,428.76Z" fill="#fff"/><path d="M508.89,424.71v4.09h-.95l-1.8-2.18v2.18H505v-4.09H506l1.8,2.18v-2.18Z" fill="#fff"/><path d="M513.75,425.66a2.17,2.17,0,0,0-.81-.75,2.41,2.41,0,0,0-1.17-.28,2.34,2.34,0,0,0-1.16.28,2,2,0,0,0-.81.75,2.06,2.06,0,0,0-.3,1.1,2,2,0,0,0,.3,1.09,2,2,0,0,0,.81.76,2.45,2.45,0,0,0,1.16.27,2.52,2.52,0,0,0,1.17-.27,2,2,0,0,0,1.1-1.85A2.15,2.15,0,0,0,513.75,425.66Zm-1,1.71a1.12,1.12,0,0,1-.4.41,1.12,1.12,0,0,1-1.12,0,1.12,1.12,0,0,1-.4-.41,1.4,1.4,0,0,1,0-1.22,1.05,1.05,0,0,1,.4-.41,1.12,1.12,0,0,1,1.12,0,1.05,1.05,0,0,1,.4.41,1.4,1.4,0,0,1,0,1.22Z" fill="#fff"/><path d="M512.3,426.76a.67.67,0,0,1-.07.33.52.52,0,0,1-.19.2.54.54,0,0,1-.27.07.57.57,0,0,1-.27-.07.52.52,0,0,1-.19-.2.67.67,0,0,1-.07-.33.71.71,0,0,1,.07-.34.5.5,0,0,1,.19-.19.47.47,0,0,1,.27-.07.45.45,0,0,1,.27.07.5.5,0,0,1,.19.19A.71.71,0,0,1,512.3,426.76Z" fill="#e72d5c"/><path d="M520,426.12a1.37,1.37,0,0,0-.21-.7,1.48,1.48,0,0,0-.63-.52,2.4,2.4,0,0,0-1-.19h-1.86v4.09h1.15v-1.07h.71a2.4,2.4,0,0,0,1-.18,1.55,1.55,0,0,0,.63-.52,1.34,1.34,0,0,0,.21-.69.61.61,0,0,0,0-.22Zm-1.34.55a.83.83,0,0,1-.54.15h-.64v-1.2h.64a.83.83,0,0,1,.54.16.57.57,0,0,1,.18.45A.56.56,0,0,1,518.68,426.67Z" fill="#fff"/><path d="M518.32,426.23a.55.55,0,0,1-.18,0h-.07v-.06h.07C518.27,426.19,518.31,426.22,518.32,426.23Z" fill="#e72d5c"/><path d="M520.59,424.71h1.16v3.17h2v.92h-3.11Z" fill="#fff"/><path d="M526.94,428h-1.73l-.32.79h-1.18l1.8-4.09h1.14l1.81,4.09h-1.2Zm-.34-.86-.53-1.3-.52,1.3Z" fill="#fff"/><path d="M529.61,428.61a2,2,0,0,1-.8-.76,2,2,0,0,1-.29-1.09,2,2,0,0,1,.29-1.1,2.09,2.09,0,0,1,.8-.76,2.61,2.61,0,0,1,2.16-.07,1.92,1.92,0,0,1,.75.57l-.73.67a1.23,1.23,0,0,0-1-.48,1.15,1.15,0,0,0-.59.15.93.93,0,0,0-.4.41,1.2,1.2,0,0,0-.14.61,1.22,1.22,0,0,0,.14.61,1.05,1.05,0,0,0,.4.41,1.15,1.15,0,0,0,.59.14,1.21,1.21,0,0,0,1-.47l.73.66a1.92,1.92,0,0,1-.75.57,2.31,2.31,0,0,1-1,.2A2.44,2.44,0,0,1,529.61,428.61Z" fill="#fff"/><path d="M536.32,427.91v.89H533v-4.09h3.2v.9h-2.06v.69H536v.86h-1.81v.75Z" fill="#fff"/><path d="M538.66,424.71h1.15v3.17h2v.92h-3.1Z" fill="#fff"/><path d="M542.22,424.71h1.15v4.09h-1.15Z" fill="#fff"/><path d="M545.77,427.32l-.43.46v1H544.2v-4.09h1.14v1.7l1.58-1.7h1.27l-1.66,1.81,1.75,2.28h-1.34Z" fill="#fff"/><path d="M551.87,427.91v.89h-3.28v-4.09h3.2v.9h-2.06v.69h1.81v.86h-1.81v.75Z" fill="#fff"/><path d="M482.56,408.54v13.37a1.73,1.73,0,0,1-.74,1.42,1.78,1.78,0,0,1-1,.29h-3.78a1.71,1.71,0,0,1-1.71-1.71v-8.74h-.77a1.71,1.71,0,0,1-1.71-1.71v-2.92a1.71,1.71,0,0,1,1.71-1.71h6.26a1.72,1.72,0,0,1,1.66,1.29A1.51,1.51,0,0,1,482.56,408.54Z" fill="#e72d5c"/><path d="M487.15,413a5.18,5.18,0,0,1-.53.57l-4.06,3.8v-4.13l1.51.84a1.65,1.65,0,0,0,.83.21,1.7,1.7,0,0,0,1.45-.79,1,1,0,0,1,.38-.37A1.21,1.21,0,0,1,487.15,413Z" fill="#e72d5c"/><path d="M494.9,418.91v3a1.7,1.7,0,0,1-1.71,1.71H482.78a1.7,1.7,0,0,1-1.71-1.71v-2.37a1.75,1.75,0,0,1,.54-1.25l.95-.88,4.06-3.8a5.18,5.18,0,0,0,.53-.57,1.21,1.21,0,0,0-.42.13,1,1,0,0,0-.38.37,1.7,1.7,0,0,1-1.45.79,1.65,1.65,0,0,1-.83-.21l-1.51-.84-1.3-.73a1.58,1.58,0,0,1-.41-.31,1.74,1.74,0,0,1-.41-.74,1.69,1.69,0,0,1,.19-1.32l.22-.35a7.1,7.1,0,0,1,1.66-1.71,8.13,8.13,0,0,1,1-.62,8,8,0,0,1,2.37-.79,9.81,9.81,0,0,1,1.24-.13h.09l.44,0a10.26,10.26,0,0,1,1.26.08,8,8,0,0,1,2.11.55,6,6,0,0,1,1.44.84,5.4,5.4,0,0,1,1.12,1.17,5.67,5.67,0,0,1,.51.89,5.43,5.43,0,0,1,.47,2.25,5.86,5.86,0,0,1-.13,1.26,6.06,6.06,0,0,1-.51,1.54,1.09,1.09,0,0,1-.08.15,7.9,7.9,0,0,1-1.45,1.91h.82A1.71,1.71,0,0,1,494.9,418.91Z" fill="#e72d5c"/><path d="M494.9,420.85v-1.94a1.71,1.71,0,0,0-1.71-1.71h-.82a7.9,7.9,0,0,0,1.45-1.91l.25,0h3.24Z" fill="#e72d5c"/><path d="M506.86,408.54v2.37a1.7,1.7,0,0,1-.13.67l-4.72,11a1.72,1.72,0,0,1-1.57,1h-4.13a1.7,1.7,0,0,1-1.43-.77l-.13-.23a1.68,1.68,0,0,1,0-1.39l.16-.38,2.41-5.54h-3.24l-.25,0a1.71,1.71,0,0,1-1.36-1.12,1.8,1.8,0,0,1-.1-.57v-5.06a1.72,1.72,0,0,1,1.71-1.71h11.08A1.71,1.71,0,0,1,506.86,408.54Z" fill="#e72d5c"/><path d="M507.5,423.79a3.85,3.85,0,0,1-2.73-1.09,3.94,3.94,0,0,1,0-5.56,3.85,3.85,0,0,1,2.73-1.06,3.89,3.89,0,0,1,2.76,1.07,4,4,0,0,1,0,5.54A3.85,3.85,0,0,1,507.5,423.79Z" fill="#e72d5c"/><path d="M523.17,410.75a7.15,7.15,0,0,0-2.74-3.12,7.05,7.05,0,0,0-2.81-1,8.32,8.32,0,0,0-1.12-.08c-.22,0-.44,0-.65,0a7.29,7.29,0,0,0-3.3,1,7.39,7.39,0,0,0-2.74,3.12,10.35,10.35,0,0,0-.92,4.47c0,.38,0,.75.05,1.11a9.45,9.45,0,0,0,.87,3.37,7.58,7.58,0,0,0,1.24,1.85,6.24,6.24,0,0,0,1.5,1.26,7.73,7.73,0,0,0,7.88,0,6.88,6.88,0,0,0,1.5-1.24,7.42,7.42,0,0,0,1.24-1.87c.08-.16.15-.33.22-.49l.06-.17a10.11,10.11,0,0,0,.6-2.72c0-.36.05-.72.05-1.1A10.35,10.35,0,0,0,523.17,410.75Zm-6.75,2.43.07-.1.07.1a6.69,6.69,0,0,1,0,4.09l-.07.1-.07-.1a6.9,6.9,0,0,1,0-4.09Z" fill="#e72d5c"/><path d="M525.46,423.79a3.89,3.89,0,0,1-2.74-1.09,3.94,3.94,0,0,1,0-5.56,4.08,4.08,0,0,1,5.5,0,4,4,0,0,1,0,5.54A3.85,3.85,0,0,1,525.46,423.79Z" fill="#e72d5c"/><path d="M541.13,410.75a7,7,0,0,0-5.13-4,7.74,7.74,0,0,0-1.54-.15,7.84,7.84,0,0,0-1.55.15,7,7,0,0,0-5.14,4,10.35,10.35,0,0,0-.92,4.47,10.08,10.08,0,0,0,0,1.11,9.45,9.45,0,0,0,.87,3.37,7.58,7.58,0,0,0,1.24,1.85,6.44,6.44,0,0,0,1.5,1.26,7.73,7.73,0,0,0,7.88,0,6.39,6.39,0,0,0,1.49-1.25,7.39,7.39,0,0,0,1.25-1.86l.22-.49a1.59,1.59,0,0,1,.07-.2,10.1,10.1,0,0,0,.59-2.69c0-.36,0-.72,0-1.1A10.2,10.2,0,0,0,541.13,410.75Zm-6.74,2.43a.36.36,0,0,1,.06-.1l.07.1a6.69,6.69,0,0,1,0,4.09l-.07.1-.06-.1a6.69,6.69,0,0,1,0-4.09Z" fill="#e72d5c"/><path d="M543.42,423.79a3.89,3.89,0,0,1-2.74-1.09,3.94,3.94,0,0,1,0-5.56,4.08,4.08,0,0,1,5.5,0,4,4,0,0,1,0,5.54A3.87,3.87,0,0,1,543.42,423.79Z" fill="#e72d5c"/><path d="M548.39,423.62a1.7,1.7,0,0,1-1.71-1.71v-8.74h-.78a1.7,1.7,0,0,1-1.7-1.71v-2.92a1.7,1.7,0,0,1,1.7-1.71h6.27a1.7,1.7,0,0,1,1.71,1.71v13.37a1.7,1.7,0,0,1-1.71,1.71Z" fill="#e72d5c"/><path d="M480.85,408.54v13.37h-3.78V411.46h-2.49v-2.92Z" fill="#fff"/><path d="M493.19,418.91v3H482.78v-2.37l5-4.68a4.82,4.82,0,0,0,1-1.17,2.14,2.14,0,0,0,.25-1,1.25,1.25,0,0,0-.44-1,2,2,0,0,0-1.28-.36,2.89,2.89,0,0,0-1.37.33,2.78,2.78,0,0,0-1,1l-2.81-1.57a5.49,5.49,0,0,1,2.2-2,7.71,7.71,0,0,1,6-.25,4.17,4.17,0,0,1,1.83,1.42,3.61,3.61,0,0,1,.66,2.15,4.64,4.64,0,0,1-.47,2.05,7.67,7.67,0,0,1-1.8,2.19L488,418.91Z" fill="#fff"/><path d="M505.15,408.54v2.37l-4.72,11h-4.12l4.51-10.37H497.3v2.06h-3.23v-5.06Z" fill="#fff"/><path d="M506,421.47a2.07,2.07,0,0,1-.63-1.55,2,2,0,0,1,.62-1.54,2.33,2.33,0,0,1,3.12,0,2,2,0,0,1,.61,1.54,2.2,2.2,0,0,1-3.72,1.55Z" fill="#fff"/><path d="M521.63,411.49a5.54,5.54,0,0,0-2.09-2.4,6.06,6.06,0,0,0-6.09,0,5.56,5.56,0,0,0-2.1,2.4,9.68,9.68,0,0,0,0,7.47,5.56,5.56,0,0,0,2.1,2.4,6.06,6.06,0,0,0,6.09,0,5.54,5.54,0,0,0,2.09-2.4l.18-.4.06-.17a8.93,8.93,0,0,0,.52-3.17A8.48,8.48,0,0,0,521.63,411.49ZM518,418.16a1.72,1.72,0,0,1-1.52.93,1.75,1.75,0,0,1-1.54-.93,8,8,0,0,1,0-5.87,1.72,1.72,0,0,1,1.54-.92,1.69,1.69,0,0,1,1.52.92,7.84,7.84,0,0,1,0,5.87Z" fill="#fff"/><path d="M516.88,415.22a4.27,4.27,0,0,1-.32,2l-.07.1-.07-.1a6.9,6.9,0,0,1,0-4.09l.07-.1.07.1A4.25,4.25,0,0,1,516.88,415.22Z" fill="#e72d5c"/><path d="M523.91,421.47a2.07,2.07,0,0,1-.63-1.55,2,2,0,0,1,.63-1.54,2.33,2.33,0,0,1,3.12,0,2,2,0,0,1,.61,1.54,2.1,2.1,0,0,1-2.18,2.16A2.15,2.15,0,0,1,523.91,421.47Z" fill="#fff"/><path d="M539.59,411.49a5.54,5.54,0,0,0-2.09-2.4,6.06,6.06,0,0,0-6.09,0,5.56,5.56,0,0,0-2.1,2.4,9.68,9.68,0,0,0,0,7.47,5.56,5.56,0,0,0,2.1,2.4,6.06,6.06,0,0,0,6.09,0,5.54,5.54,0,0,0,2.09-2.4c.06-.12.12-.24.17-.37s0,0,0,0a2,2,0,0,0,.08-.22,9.12,9.12,0,0,0,.49-3.12A8.62,8.62,0,0,0,539.59,411.49ZM536,418.16a1.73,1.73,0,0,1-1.52.93,1.75,1.75,0,0,1-1.54-.93,8,8,0,0,1,0-5.87,1.72,1.72,0,0,1,1.54-.92,1.7,1.7,0,0,1,1.52.92,8,8,0,0,1,0,5.87Z" fill="#fff"/><path d="M534.84,415.22a4.27,4.27,0,0,1-.32,2l-.07.1-.06-.1a6.69,6.69,0,0,1,0-4.09.36.36,0,0,1,.06-.1l.07.1A4.25,4.25,0,0,1,534.84,415.22Z" fill="#e72d5c"/><path d="M541.87,421.47a2.07,2.07,0,0,1-.63-1.55,2,2,0,0,1,.62-1.54,2.17,2.17,0,0,1,1.56-.6,2.15,2.15,0,0,1,1.57.6,2,2,0,0,1,.61,1.54,2.09,2.09,0,0,1-.62,1.55,2.29,2.29,0,0,1-3.11,0Z" fill="#fff"/><path d="M552.17,408.54v13.37h-3.78V411.46H545.9v-2.92Z" fill="#fff"/><polygon points="257.63 193.14 266.19 199.8 276.53 196.53 272.84 206.72 279.14 215.55 268.31 215.19 261.86 223.91 258.86 213.49 248.57 210.06 257.55 203.98 257.63 193.14" fill="#f0ba2a"/><polygon points="203.81 315.2 204.82 321.42 210.51 324.1 204.92 326.99 204.13 333.23 199.65 328.8 193.47 329.98 196.3 324.35 193.27 318.83 199.49 319.79 203.81 315.2" fill="#f0ba2a"/><polygon points="632.56 263.69 636.52 266.77 641.31 265.26 639.6 269.98 642.52 274.06 637.5 273.9 634.52 277.94 633.13 273.11 628.36 271.52 632.52 268.71 632.56 263.69" fill="#f0ba2a"/></g></g></svg>