<svg xmlns="http://www.w3.org/2000/svg" viewBox="0 0 888.37 524.21"><title>Fabian Avatar</title><g id="Layer_2" data-name="Layer 2"><g id="Layer_1-2" data-name="Layer 1"><path d="M730.8,266.48H863.05a25.32,25.32,0,1,0,0-50.63h-96a25.31,25.31,0,0,1-25.31-25.31h0a25.32,25.32,0,0,1,25.31-25.32h18.32a25.31,25.31,0,0,0,25.31-25.31h0a25.31,25.31,0,0,0-25.31-25.31H399.63a25.32,25.32,0,0,0-25.32,25.31h0a25.3,25.3,0,0,0,12.55,21.85H51.49a21.95,21.95,0,1,0,0,43.89H168.58a21.94,21.94,0,0,1,21.94,21.95h0a21.94,21.94,0,0,1-21.94,21.94H114.74a21.95,21.95,0,1,0,0,43.89h22.41a21.95,21.95,0,0,1,0,43.89H21.94A22,22,0,0,0,0,359.27H0a22,22,0,0,0,21.94,21.94H145.38a21.95,21.95,0,0,1,0,43.89H101.63a21.95,21.95,0,1,0,0,43.89H436a21.89,21.89,0,0,0,10.32-2.57A25.28,25.28,0,0,0,457.46,469H843.2a25.32,25.32,0,0,0,0-50.63H740.29a25.32,25.32,0,0,1,0-50.63h27a25.31,25.31,0,0,0,25.31-25.31h0a25.31,25.31,0,0,0-25.31-25.31H730.8a25.32,25.32,0,1,1,0-50.63Zm-414.16,48.9a21.94,21.94,0,0,1,21.94-21.95H453.24a21.94,21.94,0,0,0,21.36-26.95h23.84a25.32,25.32,0,0,1,0,50.63H365.55a25.31,25.31,0,0,0-24.8,20.21h-2.17A21.94,21.94,0,0,1,316.64,315.38Zm191.29,103H457.46a25.18,25.18,0,0,0-17.55,7.09,21.65,21.65,0,0,0-3.89-.35H346.81a21.95,21.95,0,0,1,0-43.89h23.36a21.94,21.94,0,0,0,20.25-13.48H507.93a25.32,25.32,0,0,1,0,50.63Z" fill="#4facfe"/><path d="M467.53,489.62a144.48,144.48,0,0,1,53,10A126,126,0,0,1,535.71,468H398.81a146.65,146.65,0,0,1,15.08,31.87A144.61,144.61,0,0,1,467.53,489.62Z" fill="none"/><rect x="221.55" y="302.52" width="181.4" height="60.24" rx="30.12" ry="30.12" transform="translate(-136.64 414.14) rotate(-57.1)" fill="#008494"/><rect x="245.54" y="375.16" width="181.4" height="60.24" rx="30.12" ry="30.12" transform="translate(170.18 -94.45) rotate(21.3)" fill="#00a5a8"/><rect x="489.53" y="302.52" width="181.4" height="60.24" rx="30.12" ry="30.12" transform="translate(616.08 1000.49) rotate(-122.9)" fill="#008494"/><rect x="466.63" y="375.16" width="181.4" height="60.24" rx="30.12" ry="30.12" transform="translate(1223.8 580.43) rotate(158.7)" fill="#00a5a8"/><rect x="363.7" y="269.05" width="166.86" height="151.41" fill="#008494"/><rect x="52.96" y="467.79" width="780" height="56.43" rx="28.21" ry="28.21" fill="#273043"/><circle cx="201.18" cy="338.33" r="9.35" fill="#f0ba2a"/><circle cx="263.86" cy="220.77" r="15.6" fill="#f0ba2a"/><circle cx="635.42" cy="283.61" r="5.79" fill="#f0ba2a"/><circle cx="361.04" cy="181.97" r="24.48" fill="#f7c89f"/><circle cx="361.04" cy="181.97" r="13.67" fill="#ea5536"/><circle cx="534.26" cy="181.97" r="24.48" fill="#f7c89f"/><circle cx="534.26" cy="181.97" r="13.67" fill="#ea5536"/><circle cx="516.26" cy="167.73" r="25.23" fill="#001d33"/><circle cx="379.57" cy="167.73" r="25.23" fill="#001d33"/><rect x="360.48" y="71.23" width="173.77" height="244.3" rx="77.2" ry="77.2" fill="#f7c89f"/><circle cx="368.69" cy="141.38" r="21.44" fill="#273043"/><circle cx="520.02" cy="142.5" r="21.44" fill="#273043"/><circle cx="391.37" cy="110.28" r="44.11" fill="#273043"/><circle cx="475.32" cy="78.6" r="78.6" fill="#273043"/><path d="M533.7,80.37a5.63,5.63,0,0,1-5.63-5.62,47.34,47.34,0,0,0-47.28-47.29,5.63,5.63,0,1,1,0-11.25,58.61,58.61,0,0,1,58.54,58.54A5.63,5.63,0,0,1,533.7,80.37Z" fill="#415962"/><path d="M408.5,226.82A34.46,34.46,0,1,1,443,192.36,34.5,34.5,0,0,1,408.5,226.82Zm0-62.16a27.7,27.7,0,1,0,27.7,27.7A27.74,27.74,0,0,0,408.5,164.66Z" fill="#273043"/><path d="M486.24,226.82a34.46,34.46,0,1,1,34.45-34.46A34.5,34.5,0,0,1,486.24,226.82Zm0-62.16a27.7,27.7,0,1,0,27.7,27.7A27.73,27.73,0,0,0,486.24,164.66Z" fill="#273043"/><rect x="439.58" y="187.48" width="16.05" height="7.14" fill="#273043"/><circle cx="438.45" cy="239.3" r="4.43" fill="#ed977c"/><circle cx="456.29" cy="239.3" r="4.43" fill="#ed977c"/><path d="M447.37,284.44a16.36,16.36,0,0,1,13.7,7.4,20.69,20.69,0,0,0,4.12-26.3H429.55a20.69,20.69,0,0,0,4.12,26.3A16.36,16.36,0,0,1,447.37,284.44Z" fill="#001d33"/><path d="M461.07,291.84a16.38,16.38,0,0,0-27.4,0,20.71,20.71,0,0,0,27.4,0Z" fill="#e72d5c"/><circle cx="412.55" cy="200.53" r="11.22" fill="#001d33"/><circle cx="482.81" cy="200.53" r="11.22" fill="#001d33"/><path d="M241.15,426.25a14.36,14.36,0,1,0,14.36,14.36A14.36,14.36,0,0,0,241.15,426.25Zm0,21.46a7.1,7.1,0,1,1,7.1-7.1A7.1,7.1,0,0,1,241.15,447.71Z" fill="#c8244f"/><rect x="196.68" y="413.23" width="44.47" height="54.77" fill="#e72d5c"/><path d="M207,410.13a2.29,2.29,0,0,1-1.69-.74c-3.38-3.64-4.45-5.94-4.1-8.8.28-2.19,1.86-3.79,3.26-5.21.94-.95,2-2,2.1-2.82.21-1.7-.4-2.4-1.93-4-.33-.34-.67-.69-1-1.07a2.32,2.32,0,1,1,3.44-3.1c.3.33.6.64.89.94,1.65,1.7,3.7,3.81,3.21,7.79-.3,2.35-1.95,4-3.41,5.5-.83.84-1.87,1.89-1.95,2.52s-.22,1.73,2.89,5.07a2.32,2.32,0,0,1-1.7,3.9Z" fill="#fff"/><path d="M219.79,410.13a2.31,2.31,0,0,1-1.7-.74c-3.38-3.64-4.45-5.94-4.1-8.8.28-2.19,1.86-3.79,3.26-5.21.94-.95,2-2,2.1-2.82.21-1.7-.4-2.4-1.93-4-.33-.34-.67-.69-1-1.07a2.32,2.32,0,1,1,3.44-3.1c.3.33.6.64.89.94,1.65,1.7,3.7,3.81,3.21,7.79-.3,2.35-1.95,4-3.41,5.5-.83.84-1.87,1.89-1.95,2.52s-.21,1.73,2.89,5.07a2.32,2.32,0,0,1-1.69,3.9Z" fill="#fff"/><path d="M232.54,410.13a2.33,2.33,0,0,1-1.7-.74c-3.38-3.64-4.45-5.94-4.09-8.8.27-2.19,1.85-3.79,3.25-5.21.94-.95,2-2,2.1-2.82.21-1.7-.4-2.4-1.93-4-.33-.34-.67-.69-1-1.07a2.32,2.32,0,1,1,3.44-3.1c.3.33.6.64.89.94,1.65,1.7,3.7,3.81,3.21,7.79-.29,2.35-1.95,4-3.41,5.5-.83.84-1.87,1.89-1.95,2.52s-.21,1.73,2.89,5.07a2.32,2.32,0,0,1-1.69,3.9Z" fill="#fff"/><rect x="196.68" y="435.46" width="44.47" height="11.5" fill="#fff"/><rect x="196.68" y="450.76" width="44.47" height="5.08" fill="#fff"/><rect x="196.68" y="426.58" width="44.47" height="5.08" fill="#fff"/><circle cx="669.32" cy="179.46" r="49.89" fill="#eded7b" opacity="0.22"/><circle cx="669.32" cy="179.46" r="41.31" fill="#eded7b" opacity="0.22"/><circle cx="669.32" cy="179.46" r="30.43" fill="#f0ba2a"/><rect x="718.05" y="461.97" width="29.64" height="6.07" fill="#c8244f"/><circle cx="732.87" cy="438.14" r="28.06" fill="#c8244f"/><circle cx="732.87" cy="438.14" r="22.37" fill="#fff"/><path d="M732.87,463.33a25.19,25.19,0,1,1,25.19-25.19A25.22,25.22,0,0,1,732.87,463.33Zm0-46.78a21.59,21.59,0,1,0,21.59,21.59A21.62,21.62,0,0,0,732.87,416.55Z" fill="#001d33"/><rect x="731.43" y="419.49" width="2.8" height="7.66" rx="0.91" ry="0.91" fill="#1a3165"/><rect x="741.92" y="423.8" width="2.8" height="7.66" rx="0.91" ry="0.91" transform="translate(520.09 -400.36) rotate(45)" fill="#1a3165"/><rect x="746.29" y="434.27" width="2.8" height="7.66" rx="0.91" ry="0.91" transform="translate(1185.79 -309.59) rotate(90)" fill="#1a3165"/><rect x="741.98" y="444.76" width="2.8" height="7.66" rx="0.91" ry="0.91" transform="translate(1586.23 240.14) rotate(135)" fill="#1a3165"/><rect x="731.51" y="449.13" width="2.8" height="7.66" rx="0.91" ry="0.91" transform="translate(1465.82 905.92) rotate(180)" fill="#1a3165"/><rect x="721.02" y="444.82" width="2.8" height="7.66" rx="0.91" ry="0.91" transform="translate(916.01 1276.72) rotate(-135)" fill="#1a3165"/><rect x="716.65" y="434.35" width="2.8" height="7.66" rx="0.91" ry="0.91" transform="translate(279.87 1156.23) rotate(-90)" fill="#1a3165"/><rect x="720.96" y="423.86" width="2.8" height="7.66" rx="0.91" ry="0.91" transform="translate(-90.85 636.05) rotate(-45)" fill="#1a3165"/><circle cx="732.83" cy="438.18" r="1.89" fill="#1a3165"/><rect x="735.52" y="437.33" width="1.9" height="16.76" rx="0.62" ry="0.62" transform="translate(1592.93 532.39) rotate(154.6)" fill="#1a3165"/><rect x="736.81" y="433.16" width="1.9" height="9.79" rx="0.62" ry="0.62" transform="translate(306.24 1179.66) rotate(-90.51)" fill="#1a3165"/><path d="M664.48,388h0a4.83,4.83,0,0,1,4.83,4.83v73.29a0,0,0,0,1,0,0h-9.67a0,0,0,0,1,0,0V392.79A4.83,4.83,0,0,1,664.48,388Z" transform="translate(1328.97 854.03) rotate(180)" fill="#ea5536"/><path d="M659.65,459.08h9.67v2.17a4.84,4.84,0,0,1-4.84,4.83h0a4.83,4.83,0,0,1-4.83-4.83Z" fill="#e72d5c"/><rect x="659.65" y="457.45" width="9.67" height="1.63" transform="translate(1328.97 916.53) rotate(180)" fill="#fff"/><rect x="659.65" y="387.95" width="3.1" height="68.8" transform="translate(1322.4 844.71) rotate(180)" fill="#ea5536"/><rect x="662.75" y="387.95" width="3.46" height="68.8" fill="#ed977c"/><polygon points="664.48 374.59 659.65 387.95 669.32 387.95 664.48 374.59" fill="#f7c89f"/><polygon points="664.48 374.59 662.33 380.55 666.64 380.55 664.48 374.59" fill="#112f3b"/><rect x="630.58" y="375.67" width="9.67" height="84.13" rx="4.83" ry="4.83" transform="translate(97.38 -119.64) rotate(11.64)" fill="#cbd000"/><path d="M647.23,384.37l-9.47-1.95.44-2.12a4.83,4.83,0,0,1,5.71-3.76h0a4.84,4.84,0,0,1,3.76,5.71Z" fill="#e72d5c"/><rect x="637.5" y="383.38" width="9.67" height="1.63" transform="translate(90.75 -121.73) rotate(11.64)" fill="#fff"/><rect x="641.05" y="385.36" width="3.1" height="27.58" transform="translate(93.78 -121.48) rotate(11.64)" fill="#cbd000"/><rect x="625.6" y="396.76" width="27.58" height="3.46" transform="translate(120.05 944.29) rotate(-78.36)" fill="#dae000"/><rect x="647.77" y="374.01" width="9.67" height="84.13" rx="4.83" ry="4.83" fill="#008cba"/><path d="M657.43,381h-9.66v-2.16A4.83,4.83,0,0,1,652.6,374h0a4.83,4.83,0,0,1,4.83,4.83Z" fill="#e72d5c"/><rect x="647.77" y="381" width="9.67" height="1.63" fill="#fff"/><rect x="654.33" y="382.63" width="3.1" height="27.58" fill="#008cba"/><rect x="650.87" y="382.63" width="3.46" height="27.58" fill="#03b8df"/><rect x="621.87" y="410.13" width="57.87" height="57.87" fill="#c8244f"/><rect x="621.87" y="410.21" width="57.87" height="8.2" fill="#e72d5c"/><rect x="324.27" y="306.7" width="244.58" height="154.96" rx="11.41" ry="11.41" fill="#e2e2e2"/><rect x="324.27" y="460.07" width="244.58" height="8.43" rx="3.37" ry="3.37" fill="#9b9b9b"/><path d="M458.62,372.12a12.55,12.55,0,0,0-7.81.68l1.43-4.59,7.11,1a3.59,3.59,0,0,0,1-7.12l-20-2.76a3.59,3.59,0,1,0-1,7.12l6.34.87-1.81,5.82a11,11,0,1,0-10.56,18.16h.06a10.12,10.12,0,0,0-1.42,3.27,10.22,10.22,0,1,0,20.15,1.72c.24.08.49.16.74.22a12.53,12.53,0,0,0,5.79-24.38Z" fill="#fff"/><rect x="471.55" y="427.8" width="83.65" height="18.05" rx="4.5" ry="4.5" fill="#e72d5c"/><path d="M476.15,443.09a.57.57,0,0,1-.57-.57v-2.6h-.69a.58.58,0,0,1-.57-.57v-.92a.58.58,0,0,1,.57-.57h3.66a.57.57,0,0,1,.57.57v.92a.57.57,0,0,1-.57.57h-.68v2.6a.57.57,0,0,1-.57.57Z" fill="#e72d5c"/><path d="M481.72,443.09a.57.57,0,0,1-.57-.57v-1h-.44v1a.58.58,0,0,1-.57.57H479a.58.58,0,0,1-.57-.57v-4.09a.58.58,0,0,1,.57-.57h1.16a.58.58,0,0,1,.57.57v1h.44v-1a.57.57,0,0,1,.57-.57h1.15a.57.57,0,0,1,.57.57v4.09a.57.57,0,0,1-.57.57Z" fill="#e72d5c"/><path d="M483.69,443.09a.57.57,0,0,1-.57-.57v-4.09a.57.57,0,0,1,.57-.57h3.2a.57.57,0,0,1,.57.57v.9a.58.58,0,0,1-.28.49.41.41,0,0,1,0,.19v.87a.71.71,0,0,1,0,.21.58.58,0,0,1,.36.54v.89a.58.58,0,0,1-.57.57Z" fill="#e72d5c"/><path d="M491.93,442.41a.49.49,0,0,0-.08-.21l-.49-.71-.08-.11a.39.39,0,0,0,.08-.1,1.71,1.71,0,0,0,.21-.26,2,2,0,0,0,.29-1.07,2,2,0,0,0-.31-1.12,2.35,2.35,0,0,0-.19-.25,2.16,2.16,0,0,0-.68-.49,3,3,0,0,0-1.2-.23h-1.87a.59.59,0,0,0-.36.13.55.55,0,0,0-.21.44v4.09a.56.56,0,0,0,.21.44l0,0h0a.51.51,0,0,0,.32.1h1.16A.5.5,0,0,0,489,443a.55.55,0,0,0,.3-.5v-.16l.33.48a.59.59,0,0,0,.47.25h1.24a.52.52,0,0,0,.27-.07.49.49,0,0,0,.23-.24.58.58,0,0,0,.06-.26A.41.41,0,0,0,491.93,442.41Zm-2.59-2.5h.07c.13,0,.17,0,.17,0a.44.44,0,0,1-.17,0h-.07Z" fill="#e72d5c"/><path d="M491.36,441.28v.21l-.08-.11A.39.39,0,0,0,491.36,441.28Z" fill="#e72d5c"/><path d="M495.78,441.63v.89a.57.57,0,0,1-.57.57h-3.28a.64.64,0,0,1-.28-.07.59.59,0,0,1-.29-.5v-4.09a.58.58,0,0,1,.57-.57h3.2a.57.57,0,0,1,.57.57v.89a.54.54,0,0,1-.28.49.51.51,0,0,1,0,.2v.87a.57.57,0,0,1,0,.22A.56.56,0,0,1,495.78,441.63Z" fill="#e72d5c"/><rect x="496.98" y="437.86" width="2.3" height="5.23" rx="0.57" ry="0.57" fill="#e72d5c"/><path d="M501,443.17a4.56,4.56,0,0,1-1.11-.14,3,3,0,0,1-.94-.41.57.57,0,0,1-.2-.7l.38-.85a.62.62,0,0,1,.15-.2l-.14-.14a1.55,1.55,0,0,1-.37-1.05,1.77,1.77,0,0,1,.31-1,1.88,1.88,0,0,1,.85-.68,3.2,3.2,0,0,1,1.22-.22,4.08,4.08,0,0,1,.93.11,2.89,2.89,0,0,1,.85.33.57.57,0,0,1,.23.71l-.35.85a.71.71,0,0,1-.11.17,1.93,1.93,0,0,1,.3.27,1.53,1.53,0,0,1,.38,1.06,1.76,1.76,0,0,1-.31,1,1.92,1.92,0,0,1-.85.67A3.09,3.09,0,0,1,501,443.17Z" fill="#e72d5c"/><path d="M507.94,443.09a.58.58,0,0,1-.44-.21l-.79-1v.6a.58.58,0,0,1-.57.57H505a.57.57,0,0,1-.57-.57v-4.09a.57.57,0,0,1,.57-.57H506a.58.58,0,0,1,.44.21l.79,1v-.6a.58.58,0,0,1,.57-.57h1.13a.57.57,0,0,1,.57.57v4.09a.57.57,0,0,1-.57.57Z" fill="#e72d5c"/><path d="M514.24,439.09a2.7,2.7,0,0,0-1-1,3.18,3.18,0,0,0-2.86,0,2.67,2.67,0,0,0-.88.75,1.07,1.07,0,0,0-.15.22,2.71,2.71,0,0,0,0,2.77,1.43,1.43,0,0,0,.15.22,2.92,2.92,0,0,0,.88.75,3.18,3.18,0,0,0,2.86,0,2.7,2.7,0,0,0,1-1,2.78,2.78,0,0,0,0-2.77Zm-2.93,1.05a.44.44,0,0,1,.19-.19.47.47,0,0,1,.27-.07.45.45,0,0,1,.27.07.44.44,0,0,1,.19.19.69.69,0,0,1,.07.34.7.7,0,0,1-.07.33.52.52,0,0,1-.19.2.54.54,0,0,1-.27.06.57.57,0,0,1-.27-.06.52.52,0,0,1-.19-.2.7.7,0,0,1-.07-.33A.69.69,0,0,1,511.31,440.14Z" fill="#e72d5c"/><path d="M520.59,439.84a1.93,1.93,0,0,0-.3-1,1.63,1.63,0,0,0-.27-.31,1.92,1.92,0,0,0-.61-.43,3,3,0,0,0-1.2-.23h-1.86a.57.57,0,0,0-.57.57v4.09a.55.55,0,0,0,.22.45.53.53,0,0,0,.35.12h1.15a.5.5,0,0,0,.27-.07.55.55,0,0,0,.3-.5V442h.14a3,3,0,0,0,1.2-.23,1.89,1.89,0,0,0,1.18-1.74.38.38,0,0,0,0-.1A.41.41,0,0,0,520.59,439.84Zm-2.52.07h.07c.13,0,.17,0,.18,0a.55.55,0,0,1-.18,0h-.07Z" fill="#e72d5c"/><path d="M520.59,443.09a.58.58,0,0,1-.57-.57v-4.09a.58.58,0,0,1,.57-.57h1.16a.58.58,0,0,1,.57.57V441h1.38a.58.58,0,0,1,.57.57v.92a.58.58,0,0,1-.57.57Z" fill="#e72d5c"/><path d="M527.26,443.09a.56.56,0,0,1-.53-.36l-.18-.44h-1l-.17.44a.57.57,0,0,1-.53.36h-1.18a.59.59,0,0,1-.48-.26.58.58,0,0,1,0-.54l1.8-4.09a.58.58,0,0,1,.52-.34h1.14a.57.57,0,0,1,.52.34l1.81,4.09a.58.58,0,0,1,0,.54.59.59,0,0,1-.48.26Z" fill="#e72d5c"/><path d="M533,441.59a.6.6,0,0,1,0,.49.36.36,0,0,1-.07.1,2.19,2.19,0,0,1-.49.47,3.07,3.07,0,0,1-.47.28,3.35,3.35,0,0,1-1.25.24,3,3,0,0,1-1.42-.34l-.32-.2a2.53,2.53,0,0,1-.7-.76,2.63,2.63,0,0,1-.37-1.39,3.15,3.15,0,0,1,0-.44,2.61,2.61,0,0,1,1.36-1.92,3,3,0,0,1,1.42-.34A3.17,3.17,0,0,1,532,438a3,3,0,0,1,.47.27,2.43,2.43,0,0,1,.49.47.36.36,0,0,1,.07.1.58.58,0,0,1-.13.67l-.44.4-.3.27a.61.61,0,0,1-.38.15h0a.61.61,0,0,1-.4-.21.65.65,0,0,0-.52-.27.63.63,0,0,0-.32.07.52.52,0,0,0-.18.18.75.75,0,0,0-.07.35.67.67,0,0,0,.07.33.47.47,0,0,0,.18.19.63.63,0,0,0,.32.07.64.64,0,0,0,.52-.27.55.55,0,0,1,.39-.2h0a.59.59,0,0,1,.38.14l.3.27.44.39A.8.8,0,0,1,533,441.59Z" fill="#e72d5c"/><path d="M532.47,439.94V441l-.3-.27a.59.59,0,0,0-.38-.14h0a.55.55,0,0,0-.39.2.64.64,0,0,1-.52.27.63.63,0,0,1-.32-.07.47.47,0,0,1-.18-.19.67.67,0,0,1-.07-.33.75.75,0,0,1,.07-.35.52.52,0,0,1,.18-.18.63.63,0,0,1,.32-.07.65.65,0,0,1,.52.27.61.61,0,0,0,.4.21h0a.61.61,0,0,0,.38-.15Z" fill="#e72d5c"/><path d="M536.89,441.63v.89a.58.58,0,0,1-.57.57H533a.58.58,0,0,1-.56-.44.53.53,0,0,1,0-.13v-4.09a.53.53,0,0,1,0-.13.58.58,0,0,1,.56-.44h3.2a.57.57,0,0,1,.57.57v.89a.54.54,0,0,1-.28.49.75.75,0,0,1,0,.2v.87a.58.58,0,0,0,.33.75Z" fill="#e72d5c"/><path d="M538.66,443.09a.57.57,0,0,1-.57-.57v-4.09a.57.57,0,0,1,.57-.57h1.15a.57.57,0,0,1,.57.57V441h1.38a.57.57,0,0,1,.57.57v.92a.57.57,0,0,1-.57.57Z" fill="#e72d5c"/><rect x="541.65" y="437.86" width="2.3" height="5.23" rx="0.57" ry="0.57" fill="#e72d5c"/><path d="M546.94,443.09a.56.56,0,0,1-.45-.22l-.58-.74v.39a.58.58,0,0,1-.57.57H544.2a.57.57,0,0,1-.57-.57v-4.09a.57.57,0,0,1,.57-.57h1.14a.58.58,0,0,1,.57.57v.25l.6-.64a.56.56,0,0,1,.41-.18h1.27a.59.59,0,0,1,.53.34.57.57,0,0,1-.11.62l-1.34,1.45,1.46,1.9a.55.55,0,0,1,.06.6.57.57,0,0,1-.51.32Z" fill="#e72d5c"/><path d="M548.59,443.09a.57.57,0,0,1-.57-.57v-4.09a.57.57,0,0,1,.57-.57h3.2a.58.58,0,0,1,.57.57v.9a.58.58,0,0,1-.28.49.58.58,0,0,1,0,.19v.87a.49.49,0,0,1,0,.21.59.59,0,0,1,.37.54v.89a.58.58,0,0,1-.57.57Z" fill="#e72d5c"/><path d="M476.15,439.35h-1.26v-.92h3.66v.92H477.3v3.17h-1.15Z" fill="#fff"/><path d="M482.87,438.43v4.09h-1.15v-1.6h-1.58v1.6H479v-4.09h1.16V440h1.58v-1.54Z" fill="#fff"/><path d="M487,441.63v.89h-3.28v-4.09h3.2v.9h-2.06V440h1.82v.87h-1.82v.75Z" fill="#fff"/><path d="M491.36,442.5l-.87-1.27a1.33,1.33,0,0,0,.6-.52,1.57,1.57,0,0,0,0-1.57,1.36,1.36,0,0,0-.63-.52,2.19,2.19,0,0,0-1-.19h-1.87v4.09h1.16v-1.09h.63l.74,1.09h1.24ZM490,440.38a.79.79,0,0,1-.54.16h-.64v-1.2h.64a.79.79,0,0,1,.54.16.55.55,0,0,1,.17.45A.53.53,0,0,1,490,440.38Z" fill="#fff"/><path d="M489.58,440a.44.44,0,0,1-.17,0h-.07v-.06h.07C489.54,439.91,489.58,439.93,489.58,440Z" fill="#e72d5c"/><path d="M495.21,441.63v.89h-3.28v-4.09h3.21v.9h-2.07V440h1.82v.87h-1.82v.75Z" fill="#fff"/><path d="M497.55,438.43h1.16v4.09h-1.16Z" fill="#fff"/><path d="M500,442.48a2.32,2.32,0,0,1-.76-.33l.38-.85a2.5,2.5,0,0,0,.64.29,2.56,2.56,0,0,0,.71.11c.45,0,.67-.11.67-.33a.29.29,0,0,0-.19-.26,3.09,3.09,0,0,0-.61-.18,7.27,7.27,0,0,1-.77-.21,1.24,1.24,0,0,1-.53-.37,1,1,0,0,1-.23-.67,1.16,1.16,0,0,1,.21-.68,1.29,1.29,0,0,1,.61-.47,2.43,2.43,0,0,1,1-.18,3.57,3.57,0,0,1,.8.09,2.37,2.37,0,0,1,.69.27l-.36.85a2.38,2.38,0,0,0-1.13-.31.91.91,0,0,0-.5.1.31.31,0,0,0-.16.27.25.25,0,0,0,.19.24,2.88,2.88,0,0,0,.6.17,7.27,7.27,0,0,1,.77.21,1.38,1.38,0,0,1,.53.37,1,1,0,0,1,.23.67,1.13,1.13,0,0,1-.21.67,1.42,1.42,0,0,1-.61.47,2.43,2.43,0,0,1-1,.18A3.91,3.91,0,0,1,500,442.48Z" fill="#fff"/><path d="M508.89,438.43v4.09h-.95l-1.8-2.18v2.18H505v-4.09H506l1.8,2.18v-2.18Z" fill="#fff"/><path d="M513.75,439.38a2.19,2.19,0,0,0-.81-.76,2.52,2.52,0,0,0-1.17-.27,2.45,2.45,0,0,0-1.16.27,2.1,2.1,0,0,0,0,3.71,2.45,2.45,0,0,0,1.16.27,2.52,2.52,0,0,0,1.17-.27,2.19,2.19,0,0,0,.81-.76,2.21,2.21,0,0,0,0-2.19Zm-1,1.71a1.12,1.12,0,0,1-.4.41,1.19,1.19,0,0,1-1.12,0,1.12,1.12,0,0,1-.4-.41,1.25,1.25,0,0,1-.14-.61,1.2,1.2,0,0,1,.14-.61,1,1,0,0,1,.4-.41,1.12,1.12,0,0,1,1.12,0,1,1,0,0,1,.4.41,1.2,1.2,0,0,1,.14.61A1.25,1.25,0,0,1,512.73,441.09Z" fill="#fff"/><path d="M512.3,440.48a.7.7,0,0,1-.07.33.52.52,0,0,1-.19.2.54.54,0,0,1-.27.06.57.57,0,0,1-.27-.06.52.52,0,0,1-.19-.2.7.7,0,0,1-.07-.33.69.69,0,0,1,.07-.34.44.44,0,0,1,.19-.19.47.47,0,0,1,.27-.07.45.45,0,0,1,.27.07.44.44,0,0,1,.19.19A.69.69,0,0,1,512.3,440.48Z" fill="#e72d5c"/><path d="M520,439.84a1.37,1.37,0,0,0-.21-.7,1.41,1.41,0,0,0-.63-.52,2.24,2.24,0,0,0-1-.19h-1.86v4.09h1.15v-1.07h.71a2.4,2.4,0,0,0,1-.18,1.5,1.5,0,0,0,.63-.53,1.3,1.3,0,0,0,.21-.68.61.61,0,0,0,0-.22Zm-1.34.54a.77.77,0,0,1-.54.16h-.64v-1.2h.64a.77.77,0,0,1,.54.16.55.55,0,0,1,.18.45A.54.54,0,0,1,518.68,440.38Z" fill="#fff"/><path d="M518.32,440a.55.55,0,0,1-.18,0h-.07v-.06h.07C518.27,439.91,518.31,439.93,518.32,440Z" fill="#e72d5c"/><path d="M520.59,438.43h1.16v3.17h2v.92h-3.11Z" fill="#fff"/><path d="M526.94,441.72h-1.73l-.32.8h-1.18l1.8-4.09h1.14l1.81,4.09h-1.2Zm-.34-.85-.53-1.31-.52,1.31Z" fill="#fff"/><path d="M529.61,442.33a2,2,0,0,1-.8-.76,2.21,2.21,0,0,1,0-2.19,2,2,0,0,1,.8-.76,2.61,2.61,0,0,1,2.16-.07,1.92,1.92,0,0,1,.75.57l-.73.67a1.23,1.23,0,0,0-1-.48,1.25,1.25,0,0,0-.59.14,1,1,0,0,0-.4.42,1.2,1.2,0,0,0-.14.61,1.18,1.18,0,0,0,.14.6,1,1,0,0,0,.4.42,1.25,1.25,0,0,0,.59.14,1.23,1.23,0,0,0,1-.48l.73.67a1.92,1.92,0,0,1-.75.57,2.61,2.61,0,0,1-2.16-.07Z" fill="#fff"/><path d="M536.32,441.63v.89H533v-4.09h3.2v.9h-2.06V440H536v.87h-1.81v.75Z" fill="#fff"/><path d="M538.66,438.43h1.15v3.17h2v.92h-3.1Z" fill="#fff"/><path d="M542.22,438.43h1.15v4.09h-1.15Z" fill="#fff"/><path d="M545.77,441l-.43.46v1H544.2v-4.09h1.14v1.7l1.58-1.7h1.27l-1.66,1.81,1.75,2.28h-1.34Z" fill="#fff"/><path d="M551.87,441.63v.89h-3.28v-4.09h3.2v.9h-2.06V440h1.81v.87h-1.81v.75Z" fill="#fff"/><path d="M482.56,422.26v13.37a1.71,1.71,0,0,1-1.71,1.71h-3.78a1.71,1.71,0,0,1-1.71-1.71v-8.74h-.77a1.71,1.71,0,0,1-1.71-1.71v-2.92a1.7,1.7,0,0,1,1.71-1.71h6.26a1.72,1.72,0,0,1,1.66,1.29A1.47,1.47,0,0,1,482.56,422.26Z" fill="#e72d5c"/><path d="M487.15,426.76a6.32,6.32,0,0,1-.53.57l-4.06,3.79V427l1.51.84a1.76,1.76,0,0,0,.83.21,1.72,1.72,0,0,0,1.45-.79,1.06,1.06,0,0,1,.38-.38A1.45,1.45,0,0,1,487.15,426.76Z" fill="#e72d5c"/><path d="M494.9,432.63v3a1.7,1.7,0,0,1-1.71,1.71H482.78a1.66,1.66,0,0,1-1-.3,1.71,1.71,0,0,1-.75-1.41v-2.37a1.75,1.75,0,0,1,.54-1.25l.95-.89,4.06-3.79a6.32,6.32,0,0,0,.53-.57,1.45,1.45,0,0,0-.42.12,1.06,1.06,0,0,0-.38.38,1.72,1.72,0,0,1-1.45.79,1.76,1.76,0,0,1-.83-.21l-1.51-.84-1.3-.73a1.84,1.84,0,0,1-.41-.31,1.8,1.8,0,0,1-.41-.74,1.72,1.72,0,0,1,.19-1.33l.22-.34a6.92,6.92,0,0,1,1.66-1.71,7.06,7.06,0,0,1,1-.62,8,8,0,0,1,2.37-.79,9.81,9.81,0,0,1,1.24-.13h.53a8.61,8.61,0,0,1,1.26.08,7.62,7.62,0,0,1,2.11.55,6,6,0,0,1,1.44.84,5.19,5.19,0,0,1,1.12,1.17,4.89,4.89,0,0,1,.51.89,5.43,5.43,0,0,1,.47,2.25,5.86,5.86,0,0,1-.13,1.26,6.06,6.06,0,0,1-.51,1.54,1,1,0,0,1-.08.14,7.74,7.74,0,0,1-1.45,1.92h.82A1.71,1.71,0,0,1,494.9,432.63Z" fill="#e72d5c"/><path d="M494.9,434.56v-1.93a1.71,1.71,0,0,0-1.71-1.71h-.82a7.74,7.74,0,0,0,1.45-1.92l.25,0h3.24Z" fill="#e72d5c"/><path d="M506.86,422.26v2.36a1.75,1.75,0,0,1-.13.68l-4.72,11a1.72,1.72,0,0,1-1.57,1h-4.13a1.69,1.69,0,0,1-1.43-.78,1.59,1.59,0,0,1-.13-.22,1.68,1.68,0,0,1,0-1.39l.16-.39,2.41-5.53h-3.24l-.25,0a1.68,1.68,0,0,1-1.36-1.11,1.8,1.8,0,0,1-.1-.57v-5.06a1.72,1.72,0,0,1,1.71-1.71h11.08A1.7,1.7,0,0,1,506.86,422.26Z" fill="#e72d5c"/><path d="M507.5,437.51a3.85,3.85,0,0,1-2.73-1.09,3.94,3.94,0,0,1,0-5.56,4,4,0,0,1,5.49,0,3.74,3.74,0,0,1,1.13,2.77,3.8,3.8,0,0,1-1.13,2.77A3.85,3.85,0,0,1,507.5,437.51Z" fill="#e72d5c"/><path d="M523.17,424.47a7.15,7.15,0,0,0-2.74-3.12,7.05,7.05,0,0,0-2.81-1,7,7,0,0,0-1.12-.08c-.22,0-.44,0-.65,0a7.08,7.08,0,0,0-6,4.16,10.31,10.31,0,0,0-.92,4.47c0,.38,0,.75.05,1.11a9.4,9.4,0,0,0,.87,3.36,7.64,7.64,0,0,0,1.24,1.86,6.24,6.24,0,0,0,1.5,1.26,7.73,7.73,0,0,0,7.88,0,6.88,6.88,0,0,0,1.5-1.24,7.31,7.31,0,0,0,1.24-1.88c.08-.16.15-.32.22-.49l.06-.17a10,10,0,0,0,.6-2.71c0-.36.05-.72.05-1.1A10.31,10.31,0,0,0,523.17,424.47Zm-6.75,2.43.07-.1.07.1a6.69,6.69,0,0,1,0,4.09s0,.08-.07.09l-.07-.09a6.9,6.9,0,0,1,0-4.09Z" fill="#e72d5c"/><path d="M525.46,437.51a3.89,3.89,0,0,1-2.74-1.09,3.94,3.94,0,0,1,0-5.56,4.05,4.05,0,0,1,5.5,0,3.74,3.74,0,0,1,1.13,2.77,3.8,3.8,0,0,1-1.13,2.77A3.85,3.85,0,0,1,525.46,437.51Z" fill="#e72d5c"/><path d="M541.13,424.47a7.25,7.25,0,0,0-2.73-3.12,7.08,7.08,0,0,0-2.4-.92,7.74,7.74,0,0,0-1.54-.15,7.84,7.84,0,0,0-1.55.15,7.08,7.08,0,0,0-2.4.92,7.27,7.27,0,0,0-2.74,3.12,10.31,10.31,0,0,0-.92,4.47,10.08,10.08,0,0,0,0,1.11,9.4,9.4,0,0,0,.87,3.36,7.64,7.64,0,0,0,1.24,1.86,6.44,6.44,0,0,0,1.5,1.26,7.73,7.73,0,0,0,7.88,0,6.39,6.39,0,0,0,1.49-1.25,7.28,7.28,0,0,0,1.25-1.87c.07-.16.15-.32.22-.49a1.46,1.46,0,0,1,.07-.19A10.18,10.18,0,0,0,542,430c0-.36,0-.72,0-1.1A10.17,10.17,0,0,0,541.13,424.47Zm-6.74,2.43a.24.24,0,0,1,.06-.1l.07.1a6.69,6.69,0,0,1,0,4.09s0,.08-.07.09a.45.45,0,0,1-.06-.09,6.69,6.69,0,0,1,0-4.09Z" fill="#e72d5c"/><path d="M543.42,437.51a3.89,3.89,0,0,1-2.74-1.09,3.94,3.94,0,0,1,0-5.56,4.05,4.05,0,0,1,5.5,0,3.74,3.74,0,0,1,1.13,2.77,3.8,3.8,0,0,1-1.13,2.77A3.87,3.87,0,0,1,543.42,437.51Z" fill="#e72d5c"/><path d="M548.39,437.34a1.71,1.71,0,0,1-1.71-1.71v-8.74h-.78a1.71,1.71,0,0,1-1.7-1.71v-2.92a1.7,1.7,0,0,1,1.7-1.71h6.27a1.7,1.7,0,0,1,1.71,1.71v13.37a1.71,1.71,0,0,1-1.71,1.71Z" fill="#e72d5c"/><path d="M480.85,422.26v13.37h-3.78V425.18h-2.49v-2.92Z" fill="#fff"/><path d="M493.19,432.63v3H482.78v-2.37l5-4.68a4.65,4.65,0,0,0,1-1.18,2.07,2.07,0,0,0,.25-1,1.25,1.25,0,0,0-.44-1,2,2,0,0,0-1.28-.37,2.9,2.9,0,0,0-1.37.34,2.75,2.75,0,0,0-1,1l-2.81-1.56a5.58,5.58,0,0,1,2.2-2,7.15,7.15,0,0,1,3.34-.74,7,7,0,0,1,2.71.49,4.26,4.26,0,0,1,1.83,1.43,3.61,3.61,0,0,1,.66,2.15,4.67,4.67,0,0,1-.47,2.05,8,8,0,0,1-1.8,2.19L488,432.63Z" fill="#fff"/><path d="M505.15,422.26v2.36l-4.72,11h-4.12l4.51-10.38H497.3v2.07h-3.23v-5.06Z" fill="#fff"/><path d="M506,435.19a2.07,2.07,0,0,1-.63-1.55,2,2,0,0,1,.62-1.55,2.36,2.36,0,0,1,3.12,0,2.07,2.07,0,0,1,.61,1.55,2.2,2.2,0,0,1-3.72,1.55Z" fill="#fff"/><path d="M521.63,425.21a5.54,5.54,0,0,0-2.09-2.4,6.06,6.06,0,0,0-6.09,0,5.56,5.56,0,0,0-2.1,2.4,9.68,9.68,0,0,0,0,7.47,5.56,5.56,0,0,0,2.1,2.4,6.06,6.06,0,0,0,6.09,0,5.54,5.54,0,0,0,2.09-2.4l.18-.41.06-.17a8.84,8.84,0,0,0,.52-3.16A8.48,8.48,0,0,0,521.63,425.21ZM518,431.88a1.71,1.71,0,0,1-1.52.92,1.74,1.74,0,0,1-1.54-.92,6,6,0,0,1-.56-2.94A5.89,5.89,0,0,1,515,426a1.73,1.73,0,0,1,1.54-.93A1.7,1.7,0,0,1,518,426a5.77,5.77,0,0,1,.57,2.93A5.84,5.84,0,0,1,518,431.88Z" fill="#fff"/><path d="M516.88,428.94a4.27,4.27,0,0,1-.32,2.05s0,.08-.07.09l-.07-.09a6.9,6.9,0,0,1,0-4.09l.07-.1.07.1A4.25,4.25,0,0,1,516.88,428.94Z" fill="#e72d5c"/><path d="M523.91,435.19a2.22,2.22,0,0,1,0-3.1,2.36,2.36,0,0,1,3.12,0,2.07,2.07,0,0,1,.61,1.55,2.1,2.1,0,0,1-2.18,2.16A2.15,2.15,0,0,1,523.91,435.19Z" fill="#fff"/><path d="M539.59,425.21a5.54,5.54,0,0,0-2.09-2.4,6.06,6.06,0,0,0-6.09,0,5.56,5.56,0,0,0-2.1,2.4,9.68,9.68,0,0,0,0,7.47,5.56,5.56,0,0,0,2.1,2.4,6.06,6.06,0,0,0,6.09,0,5.54,5.54,0,0,0,2.09-2.4c.06-.12.12-.25.17-.38v0a1.31,1.31,0,0,0,.08-.21,9.12,9.12,0,0,0,.49-3.12A8.62,8.62,0,0,0,539.59,425.21ZM536,431.88a1.72,1.72,0,0,1-1.52.92,1.74,1.74,0,0,1-1.54-.92,5.85,5.85,0,0,1-.56-2.94,5.79,5.79,0,0,1,.56-2.93,1.73,1.73,0,0,1,1.54-.93A1.71,1.71,0,0,1,536,426a5.79,5.79,0,0,1,.56,2.93A5.85,5.85,0,0,1,536,431.88Z" fill="#fff"/><path d="M534.84,428.94a4.27,4.27,0,0,1-.32,2.05s0,.08-.07.09a.45.45,0,0,1-.06-.09,6.69,6.69,0,0,1,0-4.09.24.24,0,0,1,.06-.1l.07.1A4.25,4.25,0,0,1,534.84,428.94Z" fill="#e72d5c"/><path d="M541.87,435.19a2.23,2.23,0,0,1,0-3.1,2.21,2.21,0,0,1,1.56-.59,2.18,2.18,0,0,1,1.57.59,2.07,2.07,0,0,1,.61,1.55,2.09,2.09,0,0,1-.62,1.55,2.29,2.29,0,0,1-3.11,0Z" fill="#fff"/><path d="M552.17,422.26v13.37h-3.78V425.18H545.9v-2.92Z" fill="#fff"/></g></g></svg>