<svg xmlns="http://www.w3.org/2000/svg" viewBox="0 0 50 50"><title>Asset 1</title><g id="4a4b152b-2f57-4835-8f7c-cbf774ae444a" data-name="Layer 2"><g id="91be0b75-a8d1-453b-a347-00204246f4ea" data-name="Layer 1"><path d="M25,0A25,25,0,1,0,50,25,25,25,0,0,0,25,0ZM35.33,19.71c0,.22,0,.45,0,.68A15.18,15.18,0,0,1,12,33.17,10.87,10.87,0,0,0,19.88,31a5.38,5.38,0,0,1-5-3.71,4.87,4.87,0,0,0,1,.09,5.26,5.26,0,0,0,1.4-.18A5.34,5.34,0,0,1,13,21.94v-.06a5.19,5.19,0,0,0,2.41.65,5.32,5.32,0,0,1-1.64-7.12A15.08,15.08,0,0,0,24.8,21a5.34,5.34,0,0,1,9.09-4.86,10.4,10.4,0,0,0,3.38-1.29,5.29,5.29,0,0,1-2.34,3A11.45,11.45,0,0,0,38,16.94,10.66,10.66,0,0,1,35.33,19.71Z"/></g></g></svg>