<svg xmlns="http://www.w3.org/2000/svg" width="50" height="50" viewBox="0 0 50 50">
  <path id="Subtraction_1" data-name="Subtraction 1" d="M25,50A25.007,25.007,0,0,1,15.269,1.965,25.007,25.007,0,0,1,34.731,48.036,24.843,24.843,0,0,1,25,50Zm5.145-29.561h0V32.461c0,.317,0,.382-.208.59L27.8,35.127v.444H38.2v-.443L36.132,33.1a.615.615,0,0,1-.237-.59V17.628a.615.615,0,0,1,.235-.59l2.117-2.025v-.444H30.915L25.689,27.577,19.743,14.569h-7.69v.444l2.473,2.976a1.04,1.04,0,0,1,.335.866v11.7a1.333,1.333,0,0,1-.357,1.161l-2.785,3.376v.437h7.9v-.443l-2.785-3.371a1.37,1.37,0,0,1-.384-1.161V20.434l6.933,15.1h.806Z"/>
</svg>
